P3
4 4
255
13
0
68
33
17
88
54
39
106
87
72
139
8
0
63
245
229
255
20
5
72
85
70
137
21
8
62
14
1
55
43
30
83
9
0
49
86
73
127
58
45
99
35
22
75
255
245
255
